#tb 0: 1/25
0,          0,          0,        1,    76032, 0x4313935b
0,          3,          3,        1,    76032, 0x4c8071b5
0,          6,          6,        1,    76032, 0x5e627edc
0,          7,          7,        1,    76032, 0xb51a996d
